# xmcd
#
# Track frame offsets: 
#        150
#        12690
#        24771
#        35072
#        46825
#        59813
#        78200
#        87411
#        108036
#        126185
#        137231
#        156045
#        169715
#
# Disc length: 2454 seconds
#
# Revision: 1
# Processed by: cddbd v1.5.1PL2 Copyright (c) Steve Scherf et al.
# Submitted via: ExactAudioCopy v0.95b3
#
DISCID=a409940d
DTITLE=Delbert McClinton - Cost of Living
DYEAR=2005
DGENRE=Rock and Roll
TTITLE0=One of the Fortunate Few
TTITLE1=Right to Be Wrong
TTITLE2=The Part I Like Best
TTITLE3=I'll Change My Style
TTITLE4=Hammerhead Stew
TTITLE5=Your Memory, Me, and the Blues
TTITLE6=Dead Wrong
TTITLE7=Down into Mexico
TTITLE8=Kiss Her Once for Me
TTITLE9=I Had a Real Good Time
TTITLE10=Midnight Communion
TTITLE11=Two Step Two
TTITLE12=Alright by Me
EXTD=
EXTT0=
EXTT1=
EXTT2=
EXTT3=
EXTT4=
EXTT5=
EXTT6=
EXTT7=
EXTT8=
EXTT9=
EXTT10=
EXTT11=
EXTT12=
PLAYORDER=
